<svg version="1.2" xmlns="http://www.w3.org/2000/svg" viewBox="0 0 1080 1080" width="1080" height="1080">
	<title>PAA-logo</title>
	<style>
		.s0 { fill: #ffffff } 
		.s1 { fill: #b2ebf9 } 
		.s2 { fill: #00749a } 
		.s3 { fill: #474646 } 
	</style>
	<g id="Layer 1">
		<path id="Forma 1" fill-rule="evenodd" class="s0" d="m1112-7v1095h-1139v-1095z"/>
		<path id="&lt;Path&gt;" class="s1" d="m608.2 477.5c-32.3 38.5-79.6 60.5-129.9 60.5-39.7 0-78.3-14.1-108.8-39.6-71.5-60.1-80.9-167.1-20.9-238.7 32.3-38.4 79.6-60.5 129.9-60.5 19.8 0 39.4 3.5 57.9 10.3 18.4 6.7 35.7 16.6 50.9 29.4 34.7 29 55.9 69.9 59.8 114.9 4 45.1-9.9 89-38.9 123.7z"/>
		<g id="&lt;Group&gt;">
			<path id="&lt;Path&gt;" class="s2" d="m534.2 952.1h-50.6v-5h50.6z"/>
		</g>
		<g id="&lt;Group&gt;">
			<path id="&lt;Path&gt;" class="s2" d="m893.9 952.1h-50.6v-5h50.6z"/>
		</g>
		<g id="&lt;Group&gt;">
			<path id="&lt;Compound Path&gt;" class="s2" d="m549.8 927.7h6.8l0.7 4.1h0.2c3.1-2.9 7.4-5 11.4-5 9.2 0 14.4 7.1 14.4 18.1 0 12.1-7.5 19.1-15.7 19.1-3.2 0-6.8-1.5-9.6-4.2h-0.2l0.4 6.2v11.2h-8.4zm25 17.3c0-7.1-2.5-11.3-8.2-11.3-2.7 0-5.6 1.3-8.4 4.3v15.9c2.6 2.4 5.5 3.2 7.7 3.2 5 0 8.9-4.1 8.9-12.1z"/>
			<path id="&lt;Compound Path&gt;" class="s2" d="m608.5 950.3v-31.5h-11.8v-6.6h20.2v38.5c0 4.7 2.8 6.5 6.4 6.5 1.8 0 3.7-0.4 6-1.4l2 6.2c-3.5 1.3-5.9 2-10.1 2-8.3 0-12.7-5-12.7-13.7z"/>
			<path id="&lt;Compound Path&gt;" class="s2" d="m645.6 949.7v-22h8.4v20.9c0 5.6 1.8 8.3 6.6 8.3 3.3 0 5.8-1.4 8.9-5.3v-23.9h8.4v35.5h-6.9l-0.6-5.7h-0.3c-3.4 3.9-7.3 6.5-12.6 6.5-8.2 0-11.9-5.2-11.9-14.3z"/>
			<path id="&lt;Compound Path&gt;" class="s2" d="m693.5 969.4c0-2.9 1.9-5.5 5.6-7.5v-0.3c-1.9-1.1-3.6-2.9-3.6-5.9 0-2.3 1.7-4.9 4.3-6.6v-0.3c-2.5-1.8-4.6-5-4.6-9.2 0-8.1 6.8-12.8 14.6-12.8q3.1 0 5.6 0.9h14.5v6.3h-8.1c1.1 1.4 2.2 3.6 2.2 5.9 0 7.9-6.2 12-14.2 12-1.6 0-3.5-0.3-5.4-1-1.4 1-2.2 1.9-2.2 3.4 0 2.3 2.3 3.3 6.7 3.3h7.3c9.2 0 13.9 2.5 13.9 8.7 0 7-7.9 12.6-20.4 12.6-9.8 0-16.2-3.2-16.2-9.5zm28.6-1.7c0-2.8-2.4-3.5-7.1-3.5h-5.7c-2.3 0-4-0.2-5.4-0.6-2.6 1.5-3.5 3.1-3.5 4.7 0 3.2 3.7 5 10.3 5 6.9 0 11.4-2.6 11.4-5.6zm-5.5-28.1c0-4.3-3.1-7-6.8-7-3.6 0-6.7 2.7-6.7 7 0 4.5 3.1 7.1 6.7 7.1 3.7 0 6.8-2.6 6.8-7.1z"/>
			<path id="&lt;Compound Path&gt;" class="s2" d="m758.8 934.3h-15.3v-6.6h23.6v35.5h-8.3zm-2.3-18.7c0-3.3 2.5-5.6 5.9-5.6 3.5 0 6 2.3 6 5.6 0 3.4-2.5 5.6-6 5.6-3.4 0-5.9-2.2-5.9-5.6z"/>
			<path id="&lt;Compound Path&gt;" class="s2" d="m791.7 927.7h6.8l0.7 5.3h0.3c3.4-3.4 7.4-6.2 12.8-6.2 8.2 0 11.9 5.3 11.9 14.4v22h-8.4v-20.9c0-5.7-1.8-8.3-6.6-8.3-3.5 0-5.9 1.7-9.1 5v24.2h-8.4z"/>
		</g>
		<g id="&lt;Group&gt;">
			<path id="&lt;Compound Path&gt;" class="s3" d="m189.5 823c19 0 27.9 9.4 27.9 23.3 0 14.9-9 23.4-25 23.4h-8.9v13.4h-21.3v-60.1zm-0.3 30.8c5.3 0 7.5-2.3 7.5-6.6 0-2.9-1.3-6.2-8-6.2h-5.2v12.8z"/>
			<path id="&lt;Compound Path&gt;" class="s3" d="m220.8 861.5c0-15 8.3-24.5 25.4-24.5 14.5 0 21.8 6.5 21.8 16.7 0 4.1-0.7 8.6-1.1 9.9h-26.7c0 4.1 2 6.2 9.2 6.2 6.1 0 13.2-1.2 15.8-2.2l1.3 12.9c-2.9 1.4-10.3 3.5-20.1 3.5-15.4 0-25.6-7.8-25.6-22.5zm19.5-6.9h9c0 0 0.1-1.8 0.1-2.6 0-2.6-1.4-3.9-4-3.9-3.3 0-4.8 1.7-5.1 6.5z"/>
			<path id="&lt;Compound Path&gt;" class="s3" d="m324.9 860.6c0 12.8-9 23.4-26.5 23.4-16.7 0-26.6-9.6-26.6-23.4 0-13.8 10-23.6 26.6-23.6 16.4 0 26.5 9.8 26.5 23.6zm-33.7-0.1c0 4.2 2.6 8 7.2 8 4.3 0 7.1-3.4 7.1-8 0-4.5-2.5-7.8-7.1-7.8-4.7 0-7.2 3.3-7.2 7.8z"/>
			<path id="&lt;Compound Path&gt;" class="s3" d="m344.5 837.9l3.3 6.5h0.4c3-5.6 8.2-7.4 14.4-7.4 11.5 0 19.9 8.8 19.9 23 0 13.9-7.9 24-20.5 24-6 0-10.2-1.5-13-5.3l-0.4 0.2c0 0 0.9 5.3 0.9 8.6v16.2h-19.4v-65.8zm4.9 28.4c1 0.8 2.9 2.2 6.4 2.2 5 0 7.2-3.3 7.2-8.3 0-4.8-2.9-7.5-7.1-7.5-2.5 0-4.8 1-6.5 2.5z"/>
			<path id="&lt;Compound Path&gt;" class="s3" d="m387.6 813.6h19.3v69.5h-19.3z"/>
			<path id="&lt;Compound Path&gt;" class="s3" d="m412.2 861.5c0-15 8.3-24.5 25.4-24.5 14.5 0 21.8 6.5 21.8 16.7 0 4.1-0.7 8.6-1.2 9.9h-26.7c0 4.1 2 6.2 9.3 6.2 6.1 0 13.1-1.2 15.8-2.2l1.2 12.9c-2.9 1.4-10.3 3.5-20.1 3.5-15.3 0-25.5-7.8-25.5-22.5zm19.4-6.9h9.1c0 0 0.1-1.8 0.1-2.6 0-2.6-1.4-3.9-4.1-3.9-3.3 0-4.7 1.7-5.1 6.5z"/>
			<path id="&lt;Compound Path&gt;" class="s3" d="m535 823l23.5 60.1h-24.3l-3.3-9.4h-19.9l-3.2 9.4h-24.2l23.5-60.1zm-19.5 35h11.1l-2.1-5.6c-1.1-3.3-3.1-11-3.1-11h-0.8c0 0-2 7.6-3.1 11z"/>
			<path id="&lt;Compound Path&gt;" class="s3" d="m562.1 813.6h19.4v69.5h-19.4z"/>
			<path id="&lt;Compound Path&gt;" class="s3" d="m586.8 880.5l3.1-13.1c2.5 1.1 8.9 3.4 16.2 3.4 4.4 0 6-1.1 6-2.6 0-0.7-0.4-1.6-1.6-1.7-0.9-0.2-5-0.5-8.5-1-5.3-0.9-8.5-2-10.8-3.5-2.6-1.8-4.3-5.1-4.3-9.4 0-9.8 7.8-15.6 22.5-15.6 8.9 0 16.5 2.1 19.3 3.5l-3.1 12.8c-3.3-1.5-9.7-2.9-15.2-2.9-3.6 0-4.8 0.8-4.8 2.1 0 0.5 0.3 1.1 1.2 1.3 1.2 0.4 5.3 0.8 8.6 1.3 4.1 0.8 7.4 1.5 10 3 3.4 2.1 5.3 5.2 5.3 9.8 0 9.2-6.8 16.1-23 16.1-9.8 0-18.1-2.3-20.9-3.5z"/>
			<path id="&lt;Compound Path&gt;" class="s3" d="m687.3 860.6c0 12.8-9 23.4-26.5 23.4-16.7 0-26.6-9.6-26.6-23.4 0-13.8 10.1-23.6 26.6-23.6 16.4 0 26.5 9.8 26.5 23.6zm-33.7-0.1c0 4.2 2.6 8 7.2 8 4.3 0 7.1-3.4 7.1-8 0-4.5-2.5-7.8-7.1-7.8-4.7 0-7.2 3.3-7.2 7.8z"/>
			<path id="&lt;Compound Path&gt;" class="s3" d="m762.7 823l23.5 60.1h-24.2l-3.3-9.4h-20l-3.2 9.4h-24.2l23.5-60.1zm-19.4 35h11l-2.1-5.6c-1.1-3.3-3.1-11-3.1-11h-0.7c0 0-2 7.6-3.1 11z"/>
			<path id="&lt;Compound Path&gt;" class="s3" d="m788.3 880.5l3.1-13.1c2.5 1.1 8.9 3.4 16.2 3.4 4.4 0 6-1.1 6-2.6 0-0.7-0.4-1.6-1.6-1.7-0.9-0.2-5-0.5-8.6-1-5.3-0.9-8.5-2-10.7-3.5-2.6-1.8-4.3-5.1-4.3-9.4 0-9.8 7.8-15.6 22.4-15.6 9 0 16.6 2.1 19.4 3.5l-3.1 12.8c-3.3-1.5-9.7-2.9-15.2-2.9-3.6 0-4.8 0.8-4.8 2.1 0 0.5 0.3 1.1 1.2 1.3 1.2 0.4 5.3 0.8 8.6 1.3 4.1 0.8 7.4 1.5 10 3 3.4 2.1 5.3 5.2 5.3 9.8 0 9.2-6.8 16.1-23 16.1-9.8 0-18.1-2.3-20.9-3.5z"/>
			<path id="&lt;Compound Path&gt;" class="s3" d="m891.9 837.9l-15.4 22.1v0.2l17 22.9h-22.8l-11.6-15.2h-2.4v15.2h-19.4v-69.5h19.4v39.1h2.8l10.4-14.8z"/>
		</g>
		<g id="&lt;Group&gt;">
			<path id="&lt;Compound Path&gt;" class="s3" d="m891.9 645.5l-170.4-143c-6.8-5.7-16.9-4.9-22.6 1.9l-4.9 5.9-16.8-14.1c21.7-33.8 33.9-71.5 36.7-109.7h83c2.9 7.7 7.8 14.8 14.6 20.5 9.4 7.9 20.8 11.8 32.2 11.8 14.3 0 28.5-6.1 38.4-18 17.8-21.2 15.1-52.8-6.1-70.6-9.4-7.9-20.9-11.7-32.2-11.7-14.3 0-28.6 6.1-38.5 17.9-3.7 4.4-6.5 9.2-8.4 14.3h-83c-3.2-42.5-17.9-84.1-43.5-119.8l63.5-53.3c7.2 4 15.5 6.3 24.4 6.3 27.7 0 50.1-22.4 50.1-50.1 0-27.7-22.4-50.2-50.1-50.2-27.7 0-50.2 22.5-50.2 50.2 0 5.7 1 11.2 2.8 16.4l-63.6 53.3q-8.1-8.2-17.1-15.8c-44.2-37.1-98.1-55.3-151.7-55.3-67.4 0-134.3 28.7-181 84.4-83.9 99.9-70.8 248.9 29.1 332.7 44.2 37.2 98.1 55.3 151.7 55.3 57.9 0 115.6-21.2 160.3-62.6l16.8 14.1-4.9 5.9c-5.7 6.8-4.9 16.9 1.9 22.6l170.5 143c6.8 5.7 16.9 4.8 22.6-2l48.4-57.7c5.7-6.8 4.8-16.9-2-22.6zm-80-289.1c1.3-3.5 3.3-6.8 5.7-9.7 6.5-7.7 16.1-12.2 26.2-12.2 4 0 7.9 0.7 11.6 2.1 3.7 1.3 7.2 3.3 10.3 5.9 14.3 12.1 16.2 33.6 4.2 48-6.5 7.8-16.1 12.2-26.2 12.2-8 0-15.7-2.8-21.9-8-4.4-3.7-7.9-8.5-9.9-13.9-3-7.9-3-16.5 0-24.4zm-53.6-256.7c18.8 0 34.1 15.3 34.1 34.1 0 18.8-15.3 34.1-34.1 34.1-5.8 0-11.6-1.5-16.6-4.3-7.3-4.1-12.9-10.7-15.7-18.7-1.2-3.5-1.8-7.3-1.8-11.1 0-18.8 15.3-34.1 34.1-34.1zm-111.3 410.4c-5.9 7.1-12.5 14-19.3 20.3-40.7 37.6-93.7 58.3-149.4 58.3-51.6 0-101.8-18.2-141.4-51.5-45-37.8-72.7-90.8-77.8-149.4-5.1-58.6 12.9-115.7 50.7-160.7 41.9-50 103.4-78.6 168.7-78.6 25.8 0 51.3 4.5 75.2 13.3 24 8.7 46.4 21.6 66.2 38.2 5.6 4.6 10.9 9.6 15.9 14.7 7.9 8 15.1 16.6 21.5 25.6 23.5 32.7 37.5 71.3 40.6 111.6 0.8 11 0.8 22.3 0 33.4-2.7 36.3-14.5 71.7-34.2 102.2-5 7.8-10.6 15.4-16.7 22.6zm22.1 54.8l35.7-42.6c4.8-5.7 13.4-6.4 19.1-1.6l-53.1 63.3c-5.7-4.8-6.5-13.4-1.7-19.1zm163.7 155l-151.6-127.3 7.2-8.6 151.6 127.3z"/>
			<path id="&lt;Compound Path&gt;" class="s3" d="m597.6 226.6c-34.7-29.2-77-43.4-119.1-43.4-52.9 0-105.5 22.5-142.2 66.2-65.8 78.5-55.6 195.4 22.9 261.3 34.8 29.1 77 43.4 119.1 43.4 52.9 0 105.5-22.6 142.2-66.3 65.8-78.4 55.6-195.4-22.9-261.2zm10.6 250.9c-32.3 38.5-79.6 60.5-129.9 60.5-39.7 0-78.3-14.1-108.8-39.6-71.5-60.1-80.9-167.1-20.9-238.7 32.3-38.4 79.6-60.5 129.9-60.5 19.8 0 39.4 3.5 57.9 10.3 18.4 6.7 35.7 16.6 50.9 29.4 34.7 29 55.9 69.9 59.8 114.9 4 45.1-9.9 89-38.9 123.7z"/>
		</g>
		<g id="&lt;Group&gt;">
			<path id="&lt;Compound Path&gt;" class="s3" d="m436.4 354.8c32.2-0.6 41.8-5.8 41.8-17 0-8.7-6.7-13.6-18.5-13.6-11.8 0-24.8 3.5-32.6 7.5l-9.8-49.6c14.5-6.9 34.6-11.8 52.2-11.8 44.4 0 70 25.1 70 59.7 0 34.9-16.4 53.6-49.5 59.9v11.9h-53.6zm-5.2 85c0-15.3 11.8-27.1 30.5-27.1 18.8 0 30.6 11.8 30.6 27.1 0 15.5-11.8 27.1-30.6 27.1-18.7 0-30.5-11.6-30.5-27.1z"/>
		</g>
		<path id="&lt;Compound Path&gt;" class="s2" d="m231.6 640.1c-31.2 0-56.5 25.3-56.5 56.5 0 31.4 25.4 56.7 56.5 56.7 31.2 0 56.6-25.3 56.6-56.7-0.1-31.2-25.4-56.5-56.6-56.5zm-50.9 56.5c0-7.3 1.7-14.2 4.5-20.6l24 66.4c-16.9-8.2-28.5-25.6-28.5-45.8zm50.9 50.9c-4.9 0-9.9-0.8-14.4-2.1l15.3-44.3 15.7 43c0.2 0.2 0.2 0.4 0.4 0.6-5.4 1.7-11 2.8-17 2.8zm6.9-74.8c3 0 5.8-0.4 5.8-0.4 2.6-0.4 2.4-4.5-0.4-4.3 0 0-8.2 0.7-13.6 0.7-4.9 0-13.3-0.7-13.3-0.7-2.6 0-3 4.1-0.2 4.3l5.4 0.4 7.9 21.7-11.2 33.4-18.4-55.1c3 0 5.8-0.4 5.8-0.4 2.5-0.4 2.3-4.5-0.5-4.3 0 0-8.1 0.6-13.5 0.6h-3.2c9.5-14.2 25.4-22.8 42.5-22.9 13.4 0 25.4 4.9 34.4 13.3h-0.6c-5 0-8.6 4.3-8.6 9 0 4.3 2.3 7.7 4.9 12 1.9 3.3 4.3 7.8 4.3 14 0 4.5-1.7 9.5-3.8 16.6l-5.2 17zm18.9 67.9l15.5-44.9c3-7.3 3.8-13.1 3.8-18.3l-0.4-5.1c3.9 7.3 6.2 15.4 6.5 24.2 0 19-10.4 35.3-25.4 44.1z"/>
		<path id="&lt;Compound Path&gt;" class="s2" d="m639.3 648.1h-349.4c-13.7-16.1-34.1-26.2-56.9-26.2-41.3 0-74.8 33.5-74.8 74.8 0 41.3 33.5 74.8 74.8 74.8 22.8 0 43.2-10.1 56.9-26.2h349.4c8.9 0 16.1-7.2 16.1-16v-65.2c0-8.8-7.2-16-16.1-16zm-407.7 114c-36.1 0-65.5-29.4-65.5-65.5 0-36.1 29.4-65.6 65.5-65.6 36.1 0 65.6 29.5 65.6 65.6 0 36.1-29.5 65.5-65.6 65.5z"/>
		<path id="&lt;Compound Path&gt;" class="s0" d="m281 669.8q0 0 0 0v-0.1zm0 0q0 0.1 0 0.1v-0.1zm0 0q0.1 0 0.1 0v-0.1z"/>
		<path id="Forma 2" fill-rule="evenodd" class="s0" d="m984 950v1h-14v-1z"/>
	</g>
</svg>